/* XPM */
static char * player_xpm[] = {
"100 100 18 1",
" 	g None",
".	g #545454",
"+	g #606060",
"@	g #747474",
"#	g #848484",
"$	g #929292",
"%	g #9C9C9C",
"&	g #A3A3A3",
"*	g #A7A7A7",
"=	g #7E7E7E",
"-	g #999999",
";	g #A8A8A8",
">	g #666666",
",	g #8B8B8B",
"'	g #5D5D5D",
")	g #888888",
"!	g #565656",
"~	g #8F8F8F",
"                                             ..........                                             ",
"                                       ......................                                       ",
"                                   ..............................                                   ",
"                                ....................................                                ",
"                              ........................................                              ",
"                            ............................................                            ",
"                          ................................................                          ",
"                        ....................................................                        ",
"                      ........................................................                      ",
"                     ..........................................................                     ",
"                    ............................................................                    ",
"                  ................................................................                  ",
"                 ..................................................................                 ",
"                ....................................................................                ",
"               ......................................................................               ",
"              ........................................................................              ",
"             ..........................................................................             ",
"            ............................................................................            ",
"           ..............................................................................           ",
"           ..............................................................................           ",
"          ................................................................................          ",
"         ..................................................................................         ",
"        ....................................................................................        ",
"        ....................................................................................        ",
"       ......................................................................................       ",
"       ....................................+@#$%&**&%$#@+....................................       ",
"      ..................................+=-;;;;;;;;;;;;;;-=+..................................      ",
"      ................................>,;;;;;;;;;;;;;;;;;;;;,>................................      ",
"     ...............................');;;;;;;;;;;;;;;;;;;;;;;;)'...............................     ",
"     ..............................@&;;;;;;;;;;;;;;;;;;;;;;;;;;&@..............................     ",
"    ..............................#;;;;;;;;;;;;;;;;;;;;;;;;;;;;;;#..............................    ",
"    ............................!~;;;;;;;;;;;;;;;;;;;;;;;;;;;;;;;;~!............................    ",
"   ............................!$;;;;;;;;;;;;;;;;;;;;;;;;;;;;;;;;;;$!............................   ",
"   ............................~;;;;;;;;;;;;;;;;;;;;;;;;;;;;;;;;;;;;~............................   ",
"   ...........................#;;;;;;;;;;;;;;;;;;;;;;;;;;;;;;;;;;;;;;#...........................   ",
"  ...........................@;;;;;;;;;;;;;;;;;;;;;;;;;;;;;;;;;;;;;;;;@...........................  ",
"  ..........................'&;;;;;;;;;;;;;;;;;;;;;;;;;;;;;;;;;;;;;;;;&'..........................  ",
"  ..........................);;;;;;;;;;;;;;;;;;;;;;;;;;;;;;;;;;;;;;;;;;)..........................  ",
"  .........................>;;;;;;;;;;;;;;;;;;;;;;;;;;;;;;;;;;;;;;;;;;;;>.........................  ",
" ..........................,;;;;;;;;;;;;;;;;;;;;;;;;;;;;;;;;;;;;;;;;;;;;,.......................... ",
" .........................+;;;;;;;;;;;;;;;;;;;;;;;;;;;;;;;;;;;;;;;;;;;;;;+......................... ",
" .........................=;;;;;;;;;;;;;;;;;;;;;;;;;;;;;;;;;;;;;;;;;;;;;;=......................... ",
" .........................-;;;;;;;;;;;;;;;;;;;;;;;;;;;;;;;;;;;;;;;;;;;;;;-......................... ",
" ........................+;;;;;;;;;;;;;;;;;;;;;;;;;;;;;;;;;;;;;;;;;;;;;;;;+........................ ",
" ........................@;;;;;;;;;;;;;;;;;;;;;;;;;;;;;;;;;;;;;;;;;;;;;;;;@........................ ",
".........................#;;;;;;;;;;;;;;;;;;;;;;;;;;;;;;;;;;;;;;;;;;;;;;;;#.........................",
".........................$;;;;;;;;;;;;;;;;;;;;;;;;;;;;;;;;;;;;;;;;;;;;;;;;$.........................",
".........................%;;;;;;;;;;;;;;;;;;;;;;;;;;;;;;;;;;;;;;;;;;;;;;;;%.........................",
".........................&;;;;;;;;;;;;;;;;;;;;;;;;;;;;;;;;;;;;;;;;;;;;;;;;&.........................",
".........................*;;;;;;;;;;;;;;;;;;;;;;;;;;;;;;;;;;;;;;;;;;;;;;;;*.........................",
".........................*;;;;;;;;;;;;;;;;;;;;;;;;;;;;;;;;;;;;;;;;;;;;;;;;*.........................",
".........................&;;;;;;;;;;;;;;;;;;;;;;;;;;;;;;;;;;;;;;;;;;;;;;;;&.........................",
".........................%;;;;;;;;;;;;;;;;;;;;;;;;;;;;;;;;;;;;;;;;;;;;;;;;%.........................",
".........................$;;;;;;;;;;;;;;;;;;;;;;;;;;;;;;;;;;;;;;;;;;;;;;;;$.........................",
".........................#;;;;;;;;;;;;;;;;;;;;;;;;;;;;;;;;;;;;;;;;;;;;;;;;#.........................",
" ........................@;;;;;;;;;;;;;;;;;;;;;;;;;;;;;;;;;;;;;;;;;;;;;;;;@........................ ",
" ........................+;;;;;;;;;;;;;;;;;;;;;;;;;;;;;;;;;;;;;;;;;;;;;;;;+........................ ",
" .........................-;;;;;;;;;;;;;;;;;;;;;;;;;;;;;;;;;;;;;;;;;;;;;;-......................... ",
" .........................=;;;;;;;;;;;;;;;;;;;;;;;;;;;;;;;;;;;;;;;;;;;;;;=......................... ",
" .........................+;;;;;;;;;;;;;;;;;;;;;;;;;;;;;;;;;;;;;;;;;;;;;;+......................... ",
" ..........................,;;;;;;;;;;;;;;;;;;;;;;;;;;;;;;;;;;;;;;;;;;;;,.......................... ",
"  .........................>;;;;;;;;;;;;;;;;;;;;;;;;;;;;;;;;;;;;;;;;;;;;>.........................  ",
"  ..........................);;;;;;;;;;;;;;;;;;;;;;;;;;;;;;;;;;;;;;;;;;)..........................  ",
"  ..........................'&;;;;;;;;;;;;;;;;;;;;;;;;;;;;;;;;;;;;;;;;&'..........................  ",
"  ...........................@;;;;;;;;;;;;;;;;;;;;;;;;;;;;;;;;;;;;;;;;@...........................  ",
"   ...........................#;;;;;;;;;;;;;;;;;;;;;;;;;;;;;;;;;;;;;;#...........................   ",
"   ............................~;;;;;;;;;;;;;;;;;;;;;;;;;;;;;;;;;;;;~............................   ",
"   ............................!$;;;;;;;;;;;;;;;;;;;;;;;;;;;;;;;;;;$!............................   ",
"    ............................!~;;;;;;;;;;;;;;;;;;;;;;;;;;;;;;;;~!............................    ",
"    ..............................#;;;;;;;;;;;;;;;;;;;;;;;;;;;;;;#..............................    ",
"     ..............................@&;;;;;;;;;;;;;;;;;;;;;;;;;;&@..............................     ",
"     ...............................');;;;;;;;;;;;;;;;;;;;;;;;)'...............................     ",
"      ................................>,;;;;;;;;;;;;;;;;;;;;,>................................      ",
"      ..................................+=-;;;;;;;;;;;;;;-=+..................................      ",
"       ....................................+@#$%&**&%$#@+....................................       ",
"       ......................................................................................       ",
"        ....................................................................................        ",
"        ....................................................................................        ",
"         ..................................................................................         ",
"          ................................................................................          ",
"           ..............................................................................           ",
"           ..............................................................................           ",
"            ............................................................................            ",
"             ..........................................................................             ",
"              ........................................................................              ",
"               ......................................................................               ",
"                ....................................................................                ",
"                 ..................................................................                 ",
"                  ................................................................                  ",
"                    ............................................................                    ",
"                     ..........................................................                     ",
"                      ........................................................                      ",
"                        ....................................................                        ",
"                          ................................................                          ",
"                            ............................................                            ",
"                              ........................................                              ",
"                                ....................................                                ",
"                                   ..............................                                   ",
"                                       ......................                                       ",
"                                             ..........                                             "};
