/* XPM */
static char * endgame_2_xpm[] = {
"128 128 65 1",
" 	g #000000",
".	g #020202",
"+	g #353535",
"@	g #767676",
"#	g #929292",
"$	g #AAAAAA",
"%	g #C3C3C3",
"&	g #DBDBDB",
"*	g #F3F3F3",
"=	g #FFFFFF",
"-	g #FEFEFE",
";	g #838383",
">	g #060606",
",	g #5A5A5A",
"'	g #CECECE",
")	g #F9F9F9",
"!	g #131313",
"~	g #A3A3A3",
"{	g #EAEAEA",
"]	g #AEAEAE",
"^	g #6E6E6E",
"/	g #292929",
"(	g #A5A5A5",
"_	g #FCFCFC",
":	g #3D3D3D",
"<	g #070707",
"[	g #F6F6F6",
"}	g #2B2B2B",
"|	g #A8A8A8",
"1	g #FDFDFD",
"2	g #727272",
"3	g #323232",
"4	g #A7A7A7",
"5	g #808080",
"6	g #404040",
"7	g #3C3C3C",
"8	g #E3E3E3",
"9	g #010101",
"0	g #797979",
"a	g #0D0D0D",
"b	g #B9B9B9",
"c	g #090909",
"d	g #C1C1C1",
"e	g #050505",
"f	g #B6B6B6",
"g	g #030303",
"h	g #939393",
"i	g #E0E0E0",
"j	g #C0C0C0",
"k	g #909090",
"l	g #101010",
"m	g #D0D0D0",
"n	g #414141",
"o	g #0A0A0A",
"p	g #DDDDDD",
"q	g #8D8D8D",
"r	g #363636",
"s	g #272727",
"t	g #0E0E0E",
"u	g #BABABA",
"v	g #EFEFEF",
"w	g #282828",
"x	g #5F5F5F",
"y	g #969696",
"z	g #EEEEEE",
"                                                                                                                                ",
"                                                                                                                                ",
"                                                                                                                                ",
"                                                                                                                                ",
"                                                                                                                                ",
"                                                                                                                                ",
"                                                                                                                                ",
"                                                                                                                                ",
"                                                                                                                                ",
"                                                                                                                                ",
"                                                                                                                                ",
"                                                                                                                                ",
"                                                                                                                                ",
"                                                                                                                                ",
"                                                                                                                                ",
"                                                                                                                                ",
"                                                                                                                                ",
"                                                                                                                                ",
"                                                                                                                                ",
"                                                                                                                                ",
"                                                                                                                                ",
"                                                                                                                                ",
"                                                                                                                                ",
"                                                                                                                                ",
"                                                                                                                                ",
"                                                                                                                                ",
"                                                                                                                                ",
"                                                                                                                                ",
"                                                                                                                                ",
"                                                                                                                                ",
"                                                                                                                                ",
"                                                                                                                                ",
"                                                                                                                                ",
"                                                                                                                                ",
"                                         .+@#$%&*===-&;>                                           ,')======================    ",
"                                      !,~{=============]                                          ^=========================    ",
"                                    /(_=================:                                        <[=========================    ",
"                                  }|1===================2                                        3==========================    ",
"                                !4-=====================5                                        6==========================    ",
"                               78=======================5                                        6==========================    ",
"                             90_========================5                                        6==========================    ",
"                            ab==========================5                                        6==========================    ",
"                           cd===========================5                                        6==========================    ",
"                          ef============================5                                        6==========================    ",
"                         g$=============================5                                        6==========================    ",
"                         h==============================ijjjjjjjjjjk                             l6666666m==================    ",
"                        n-=========================================j                                     j==================    ",
"                       op==========================================j                                     j==================    ",
"                       q===========================================j                                     j==================    ",
"                      r1===========================================j                                     j==================    ",
"                      b============================================j                                     j==================    ",
"                     s-============================================j                                     j==================    ",
"                     h==================================ijjjjjjjjjjk                             l6666666m==================    ",
"                    t*==================================5                                        6==========================    ",
"                    ^===================================5                                        6==========================    ",
"                    u===================================5                                        6==========================    ",
"                   9v===================================5                                        6==========================    ",
"                   w====================================5                                        6==========================    ",
"                   x====================================5                                        6==========================    ",
"                   y====================================5                                        6==========================    ",
"    jjjjjjjjjjjjjjjz====================================5                                        6==========================    ",
"    ====================================================5                                        6==========================    ",
"    ====================================================5                                        6==========================    ",
"    ====================================================5                                        6==========================    ",
"    ====================================================5                                        6==========================    ",
"    ====================================================5                                        6==========================    ",
"    ====================================================5                                        6==========================    ",
"    jjjjjjjjjjjjjjjz====================================5                                        6==========================    ",
"                   y====================================5                                        6==========================    ",
"                   x====================================5                                        6==========================    ",
"                   w====================================5                                        6==========================    ",
"                   9v===================================5                                        6==========================    ",
"                    u===================================5                                        6==========================    ",
"                    ^===================================5                                        6==========================    ",
"                    t*==================================5                                        6==========================    ",
"                     h==================================ijjjjjjjjjjk                             l6666666m==================    ",
"                     s-============================================j                                     j==================    ",
"                      b============================================j                                     j==================    ",
"                      r1===========================================j                                     j==================    ",
"                       q===========================================j                                     j==================    ",
"                       op==========================================j                                     j==================    ",
"                        n-=========================================j                                     j==================    ",
"                         h==============================ijjjjjjjjjjk                             l6666666m==================    ",
"                         g$=============================5                                        6==========================    ",
"                          ef============================5                                        6==========================    ",
"                           cd===========================5                                        6==========================    ",
"                            ab==========================5                                        6==========================    ",
"                             90_========================5                                        6==========================    ",
"                               78=======================5                                        6==========================    ",
"                                !4-=====================5                                        6==========================    ",
"                                  }|1===================2                                        3==========================    ",
"                                    /(_=================:                                        <[=========================    ",
"                                      !,~{=============]                                          ^=========================    ",
"                                         .+@#$%&*===-&;>                                           ,')======================    ",
"                                                                                                                                ",
"                                                                                                                                ",
"                                                                                                                                ",
"                                                                                                                                ",
"                                                                                                                                ",
"                                                                                                                                ",
"                                                                                                                                ",
"                                                                                                                                ",
"                                                                                                                                ",
"                                                                                                                                ",
"                                                                                                                                ",
"                                                                                                                                ",
"                                                                                                                                ",
"                                                                                                                                ",
"                                                                                                                                ",
"                                                                                                                                ",
"                                                                                                                                ",
"                                                                                                                                ",
"                                                                                                                                ",
"                                                                                                                                ",
"                                                                                                                                ",
"                                                                                                                                ",
"                                                                                                                                ",
"                                                                                                                                ",
"                                                                                                                                ",
"                                                                                                                                ",
"                                                                                                                                ",
"                                                                                                                                ",
"                                                                                                                                ",
"                                                                                                                                ",
"                                                                                                                                ",
"                                                                                                                                ",
"                                                                                                                                ",
"                                                                                                                                "};
