/* XPM */
static char * save_maze_xpm[] = {
"128 128 90 1",
" 	c None",
".	c #000000",
"+	c #1B1B1B",
"@	c #A9A9A9",
"#	c #F2F2F2",
"$	c #FFFFFF",
"%	c #EBEBEB",
"&	c #727272",
"*	c #010101",
"=	c #AEAEAE",
"-	c #090909",
";	c #C6C6C6",
">	c #141414",
",	c #D8D8D8",
"'	c #1C1C1C",
")	c #282828",
"!	c #1E1E1E",
"~	c #1F1F1F",
"{	c #D0D0D0",
"]	c #DDDDDD",
"^	c #202020",
"/	c #323232",
"(	c #333333",
"_	c #0E0E0E",
":	c #BABABA",
"<	c #E1E1E1",
"[	c #252525",
"}	c #050505",
"|	c #060606",
"1	c #ABABAB",
"2	c #E6E6E6",
"3	c #292929",
"4	c #030303",
"5	c #A0A0A0",
"6	c #E9E9E9",
"7	c #2F2F2F",
"8	c #959595",
"9	c #EFEFEF",
"0	c #373737",
"a	c #949494",
"b	c #F0F0F0",
"c	c #343434",
"d	c #848484",
"e	c #777777",
"f	c #EAEAEA",
"g	c #2B2B2B",
"h	c #E8E8E8",
"i	c #888888",
"j	c #E3E3E3",
"k	c #212121",
"l	c #9C9C9C",
"m	c #020202",
"n	c #A3A3A3",
"o	c #CACACA",
"p	c #0B0B0B",
"q	c #040404",
"r	c #CFCFCF",
"s	c #131313",
"t	c #6F6F6F",
"u	c #707070",
"v	c #FCFCFC",
"w	c #9E9E9E",
"x	c #9F9F9F",
"y	c #1D1D1D",
"z	c #A1A1A1",
"A	c #181818",
"B	c #222222",
"C	c #080808",
"D	c #ADADAD",
"E	c #F9F9F9",
"F	c #ACACAC",
"G	c #070707",
"H	c #646464",
"I	c #636363",
"J	c #808080",
"K	c #E7E7E7",
"L	c #272727",
"M	c #E5E5E5",
"N	c #262626",
"O	c #8F8F8F",
"P	c #656565",
"Q	c #2D2D2D",
"R	c #BFBFBF",
"S	c #F1F1F1",
"T	c #A8A8A8",
"U	c #A6A6A6",
"V	c #1A1A1A",
"W	c #A7A7A7",
"X	c #191919",
"Y	c #666666",
"................................................................................................................................",
"................................................................................................................................",
"................................................................................................................................",
"................................................................................................................................",
"................................................................................................................................",
"................................................................................................................................",
"................................................................................................................................",
"................................................................................................................................",
"................................................................................................................................",
"................................................................................................................................",
"................................................................................................................................",
"................................................................................................................................",
".............+@#$$$$$$$$$$$$$$$$$$$$$$$$$$$$$$$$$$$$$$$$$$$$$$$$$$$$$$$$$$$$$$$$$$$$$$$$$$$$$$$$%&*.............................",
"............+%$$$$$$$$$$$$$$$$$$$$$$$$$$$$$$$$$$$$$$$$$$$$$$$$$$$$$$$$$$$$$$$$$$$$$$$$$$$$$$$$$$$$=-............................",
"............@$$$$$$$$$$$$$$$$$$$$$$$$$$$$$$$$$$$$$$$$$$$$$$$$$$$$$$$$$$$$$$$$$$$$$$$$$$$$$$$$$$$$$$;>...........................",
"............#$$$$$$$$$$$$$$$$$$$$$$$$$$$$$$$$$$$$$$$$$$$$$$$$$$$$$$$$$$$$$$$$$$$$$$$$$$$$$$$$$$$$$$$,'..........................",
"............$$$$...............)$$$$;!............~;$$$$$$$$$$$$$$$$$$$$$$$$$$)................'{$$$$]^.........................",
"............$$$$...............)$$$$/..............($$$$$$$$$$$$$$$$$$$$$$$$$$)................._:$$$$<[........................",
"............$$$$...............)$$$$}..............}$$$$$$$$$$$$$$$$$$$$$$$$$$)..................|1$$$$23.......................",
"............$$$$...............)$$$$................$$$$$$$$$$$$$$$$$$$$$$$$$$)...................45$$$$67......................",
"............$$$$...............)$$$$................$$$$$$$$$$$$$$$$$$$$$$$$$$)....................*8$$$$90.....................",
"............$$$$...............)$$$$................$$$$$$$$$$$$$$$$$$$$$$$$$$).....................*a$$$$bc....................",
"............$$$$...............)$$$$................$$$$$$$$$$$$$$$$$$$$$$$$$$).......................d$$$$9/...................",
"............$$$$...............)$$$$................$$$$$$$$$$$$$$$$$$$$$$$$$$)........................e$$$$fg..................",
"............$$$$...............)$$$$................$$$$$$$$$$$$$$$$$$$$$$$$$$).........................d$$$$h).................",
"............$$$$...............)$$$$................$$$$$$$$$$$$$$$$$$$$$$$$$$)..........................i$$$$jk................",
"............$$$$...............)$$$$................$$$$$$$$$$$$$$$$$$$$$$$$$$)..........................*a$$$$<~...............",
"............$$$$...............)$$$$................$$$$$$$$$$$$$$$$$$$$$$$$$$)...........................*l$$$$,>..............",
"............$$$$...............)$$$$................$$$$$$$$$$$$$$$$$$$$$$$$$$)............................mn$$$$op.............",
"............$$$$...............)$$$$................$$$$$$$$$$$$$$$$$$$$$$$$$$).............................q1$$$$=*............",
"............$$$$...............)$$$$................$$$$$$$$$$$$$$$$$$$$$$$$$$)..............................}:$$$$&............",
"............$$$$...............)$$$$................$$$$$$$$$$$$$$$$$$$$$$$$$$)..............................._r$$$6............",
"............$$$$...............)$$$$................$$$$$$$$$$$$$$$$$$$$$$$$$$)................................'$$$$............",
"............$$$$...............)$$$$................$$$$$$$$$$$$$$$$$$$$$$$$$$).................................$$$$............",
"............$$$$...............)$$$$................$$$$$$$$$$$$$$$$$$$$$$$$$$).................................$$$$............",
"............$$$$...............)$$$$................$$$$$$$$$$$$$$$$$$$$$$$$$$).................................$$$$............",
"............$$$$...............)$$$$s..............s$$$$$$$$$$$$$$$$$$$$$$$$$$).................................$$$$............",
"............$$$$...............)$$$$t..............u$$$$$$$$$$$$$$$$$$$$$$$$$$).................................$$$$............",
"............$$$$...............)$$$$vweeeeeeeeeeeexv$$$$$$$$$$$$$$$$$$$$$$$$$$).................................$$$$............",
"............$$$$...............)$$$$$$$$$$$$$$$$$$$$$$$$$$$$$$$$$$$$$$$$$$$$$$).................................$$$$............",
"............$$$$...............y$$$$$$$$$$$$$$$$$$$$$$$$$$$$$$$$$$$$$$$$$$$$$$y.................................$$$$............",
"............$$$$................z$$$$$$$$$$$$$$$$$$$$$$$$$$$$$$$$$$$$$$$$$$$$5..................................$$$$............",
"............$$$$.................ABBBBBBBBBBBBBBBBBBBBBBBBBBBBBBBBBBBBBBBBBBA...................................$$$$............",
"............$$$$................................................................................................$$$$............",
"............$$$$................................................................................................$$$$............",
"............$$$$................................................................................................$$$$............",
"............$$$$................................................................................................$$$$............",
"............$$$$................................................................................................$$$$............",
"............$$$$................................................................................................$$$$............",
"............$$$$................................................................................................$$$$............",
"............$$$$................................................................................................$$$$............",
"............$$$$................................................................................................$$$$............",
"............$$$$................................................................................................$$$$............",
"............$$$$..........CDE$$$$$$$$$$$$$$$$$$$$$$$$$$$$$$$$$$$$$$$$$$$$$$$$$$$$$$$$$$$$$$$$$$$$$$EFG..........$$$$............",
"............$$$$..........H$$$$$$$$$$$$$$$$$$$$$$$$$$$$$$$$$$$$$$$$$$$$$$$$$$$$$$$$$$$$$$$$$$$$$$$$$$I..........$$$$............",
"............$$$$..........J$$$$$$$$$$$$$$$$$$$$$$$$$$$$$$$$$$$$$$$$$$$$$$$$$$$$$$$$$$$$$$$$$$$$$$$$$$J..........$$$$............",
"............$$$$..........J$$$$$$$$$$$$$$$$$$$$$$$$$$$$$$$$$$$$$$$$$$$$$$$$$$$$$$$$$$$$$$$$$$$$$$$$$$J..........$$$$............",
"............$$$$..........J$$$$$$$$$$$$$$$$$$$$$$$$$$$$$$$$$$$$$$$$$$$$$$$$$$$$$$$$$$$$$$$$$$$$$$$$$$J..........$$$$............",
"............$$$$..........J$$$$$$$$$$$$$$$$$$$$$$$$$$$$$$$$$$$$$$$$$$$$$$$$$$$$$$$$$$$$KK$$$$$$$$$$$$J..........$$$$............",
"............$$$$..........J$$$$$$$$$$$$$$$$$$$$$$$$$$$$$$$$$$$$$$$$$$$$$$$$$$$$$$$$$$$hgLM$$$$$$$$$$$J..........$$$$............",
"............$$$$..........J$$$$$$$$$$$$$$$$$$$$$$$$$$$$$$$$$$$$$$$$$$$$$$$$$$$$$$$$$$K)..)K$$$$$$$$$$J..........$$$$............",
"............$$$$..........J$$$$$$$$$$$$$$$$$$$$$$$$$$$$$$$$$$$$$$$$$$$$$$$$$$$$$$$$$hg....NM$$$$$$$$$J..........$$$$............",
"............$$$$..........J$$$$$$$$$$$$$$$$$$$$$$$$$$$$$$$$$$$$$$$$$$$$$$$$$$$$$$$$hg......NM$$$$$$$$J..........$$$$............",
"............$$$$..........J$$$$$$$$$$$$$$$$$$$$$$$$$$$$$$$$$$$$$$$$$$$$$$$$$$$$$$$hg........NM$$$$$$$J..........$$$$............",
"............$$$$..........J$$$$$$$$$$$$$$$$$$$$$$$$$$$$$$$$$$$$$$$$$$$$$$$$$$$$$$K)..........)K$$$$$$J..........$$$$............",
"............$$$$..........J$$$$$$$$$$$$$$$$$$$$$$$$$$$$$$$$$$$$$$$$$$$$$$$$$$$$$hg.....iO*....NM$$$$$J..........$$$$............",
"............$$$$..........J$$$$$$$$$$$$$$$$$$$$$$$$$$$$$$$$$$$$$$$$$$$$$$$$$$$$hg.....i$$O*....NM$$$$J..........$$$$............",
"............$$$$..........J$$$$$$$$$$$$$$$$$$$$$$$$$$$$$$$$$$$$$$$$$$$$$$$$$$$hg.....i$$$$O*....NM$$$J..........$$$$............",
"............$$$$..........J$$$$$$$$$$$$$$$$$$$$$$$$$$$$$$$$$$$$$$$$$$$$$$$$$$hg.....i$$$$$$O*....NM$$J..........$$$$............",
"............$$$$..........J$$$$$$$$$$$$$$$$$$$$$$$$$$$$$$$$$$$$$$$$$$$$$$$$$hg.....i$$$$$$$$O*....NM$J..........$$$$............",
"............$$$$..........J$$$$$$$$$$$$$$$$$$$$$$$$$$$$$$$$$$$$$$$$$$$$$$$$hg.....i$$$$$$$$$$O*....NMJ..........$$$$............",
"............$$$$..........J$$$$$$$$$$$$$$$$$$$$$$$$$$$$$$$$$$$$$$$$$$$$$$$hg.....i$$$$$$$$$$$$O*....NP..........$$$$............",
"............$$$$..........J$$$$$$$$$$$$$$$$$$$$$$$$$$$$$$$$$$$$$$$$$$$$$$K).....O$$$$$$$$$$$$$$O................$$$$............",
"............$$$$..........J$$$$$$$$$$$$$$$$$$$$$$$$$$$$$$$$$$$$$$$$$$$$$hg.....i$$$$$$$$$$$$$$$$O*..............$$$$............",
"............$$$$..........J$$$$$$$$$$$$$$$$$$$$$$$$$$$$$$$$$$$$$$$$$$$$hg.....i$$$$$$$$$$$$$$$$$$O*.............$$$$............",
"............$$$$..........J$$$$$$$$$$$$$$$$$$$$$$$$$$$$$$$$$$$$$$$$$$$hg.....i$$$$$$$$$$$$$$$$$$$$O*............$$$$............",
"............$$$$..........J$$$$$$$$$$$$$$$$$$$$$$$$$$$$$$$$$$$$$$$$$$hg.....i$$$$$$$$$$$$$$$$$$$$$$O*...........$$$$............",
"............$$$$..........J$$$$$$$$$$$$$$$$$$$$$$$$$$$$$$$$$$$$$$$$$hg.....i$$$$$$$$$$$$$$$$$$$$$$$$O*..........$$$$............",
"............$$$$..........J$$$$$$$$$$$$$$$$$$$$$$$$$$$$$$$$$$$$$$$$hg.....i$$$$$$$$$$$$$$$$$$$$$$$$$$O*.........$$$$............",
"............$$$$..........J$$$$$$$$$$$$$$$$$$$$$$$$$$$$$$$$$$$$$$$hg.....i$$$$$$$$$$$$$$$$$$$$$$$$$$$$O*........$$$$............",
"............$$$$..........J$$$$$$$$$$$$$$$$$$$$$$$$$$$$$$$$$$$$$$hg.....i$$$$$$$$$$$$$$$$$$$$$$$$$$$$$$O*.......$$$$............",
"............$$$$..........J$$$$$$$$$$$$$$$$$$$$$$$$$$$$$$$$$$$$$hg.....i$$$$$$$$$$$$$$$$$$$$$$$$$$$$$$$$O*......$$$$............",
"............$$$$..........J$$$$$$$$$$$$$$$$$$$$$$$$$$$$$$$$$$$$K).....O$$$$$$$$$$$$$$$$$$$$$$$$$$$$$$$$$$O......K$$$............",
"............$$$$..........J$$$$$$$$$$$$$$$$$$$$$$$$$$$$$$$$$$$hg.....i$$$$$$$$$$$$$$$$$$$$$$$$$$$$$$$$$$$$O*....NM$$............",
"............$$$$..........J$$$$$$$$$$$$$$$$$$$$$$$$$$$$$$$$$$hg.....i$$$$$$$$$$$$$$$$$$$$$$$$$$$$$$$$$$$$$$O*....NM$............",
"............$$$$..........J$$$$$$$$$$$$$$$$$$$$$$$$$$$$$$$$$hg.....i$$$$$$$$$$$$$$$$$$$$$$$$$$$$$$$$$$$$$$$$O*....NM............",
"............$$$$..........J$$$$$$$$$$$$$$$$$$$$$$$$$$$$$$$$K).....O$$$$$$$$$$$$$$$$$$$$$$$$$$$$$$$$$$$$$$$$$$O.....)............",
"............$$$$..........J$$$$$$$$$$$$$$$$$$$$$$$$$$$$$$$hg.....i$$$$$$$$$$$$$$$$$$$$$$$$$$$$$$$$$$$$$$$$$$$$O*................",
"............$$$$..........J$$$$$$$$$$$$$$$$$$$$$$$$$$$$$$hg.....i$$$$$$$$$$$$$$$$$$$$$$$$$$$$$$$$$$$$$$$$$$$$$$O*...............",
"............$$$$..........J$$$$$$$$$$$$$$$$$$$$$$$$$$$$$hg.....i$$$$$$$$$$$$$$$$$$$$$$$$$$$$$$$$$$$$$$$$$$$$$$$$O*..............",
"............$$$$..........J$$$$$$$$$$$$$$$$$$$$$$$$$$$$hg.....i$$$$$$$$$$$$$$$$$$$$$$$$$$$$$$$$$$$$$$$$$$$$$$$$$$O*.............",
"............$$$$..........J$$$$$$$$$$$$$$$$$$$$$$$$$$$K).....Qiiiiiiiiiiii<$$$$$$$$$$$$$$$$$$$$$$$$$$<iiiiiiiiiiiiQ.............",
"............$$$$..........J$$$$$$$$$$$$$$$$$$$$$$$$$$K)...................R$$$$$$$$$$$$$$$$$$$$$$$$$$R..........................",
"............$$$$..........J$$$$$$$$$$$$$$$$$$$$$$$$$6g....................R$$$$$$$$$$$$$$$$$$$$$$$$$$R..........................",
"............$$$$..........J$$$$$$$$$$$$$$$$$$$$$$$$6g.....................R$$$$$$$$$$$$$$$$$$$$$$$$$$R..........................",
"............$$$$..........J$$$$$$$$$$$$$$$$$$$$$$$6g......................R$$$$$$$$$$$$$$$$$$$$$$$$$$R..........................",
"............$$$$..........J$$$$$$$$$$$$$$$$$$$$$$$$$$$$$$$$$$$$$$$$$$R....R$$$$$$$$$$$$$$$$$$$$$$$$$$R..........$$$$............",
"............$$$$..........J$$$$$$$$$$$$$$$$$$$$$$$$$$$$$$$$$$$$$$$$$$R....R$$$$$$$$$$$$$$$$$$$$$$$$$$R..........$$$$............",
"............$$$$..........J$$$$$$$$$$$$$$$$$$$$$$$$$$$$$$$$$$$$$$$$$$R....R$$$$$$$$$$$$$$$$$$$$$$$$$$R..........$$$$............",
"............$$$$..........J$$$$$$$$$$$$$$$$$$$$$$$$$$$$$$$$$$$$$$$$$$R....R$$$$$$$$$$$$$$$$$$$$$$$$$$R..........$$$$............",
"............$$$$..........J$$$$$$$$$$$$$$$$$$$$$$$$$$$$$$$$$$$$$$$$$$R....R$$$$$$$$$$$$$$$$$$$$$$$$$$R..........$$$$............",
"............$$$$..........H$$$$$$$$$$$$$$$$$$$$$$$$$$$$$$$$$$$$$$$$$$R....R$$$$$$$$$$$$$$$$$$$$$$$$$$R..........$$$$............",
"............$$$$..........GFE$$$$$$$$$$$$$$$$$$$$$$$$$$$$$$$$$$$$$$$$R....R$$$$$$$$$$$$$$$$$$$$$$$$$$R..........$$$$............",
"............$$$$..........................................................R$$$$$$$$$$$$$$$$$$$$$$$$$$R..........$$$$............",
"............$$$$..........................................................R$$$$$$$$$$$$$$$$$$$$$$$$$$R..........$$$$............",
"............$$$$..........................................................R$$$$$$$$$$$$$$$$$$$$$$$$$$R..........$$$$............",
"............$$$$..........................................................R$$$$$$$$$$$$$$$$$$$$$$$$$$R..........$$$$............",
"............$$$$..........................................................R$$$$$$$$$$$$$$$$$$$$$$$$$$R..........$$$$............",
"............$$$$..........................................................R$$$$$$$$$$$$$$$$$$$$$$$$$$R..........$$$$............",
"............$$$$..........................................................R$$$$$$$$$$$$$$$$$$$$$$$$$$R..........$$$$............",
"............$$$$..........................................................R$$$$$$$$$$$$$$$$$$$$$$$$$$R..........$$$$............",
"............$$$$..........................................................R$$$$$$$$$$$$$$$$$$$$$$$$$$R..........$$$$............",
"............S$$$$$$$$$$$$$$$$$$$$$$$$$$$$$$$$$$$$$$$$$$$$$$$$$$$$$$$$R....R$$$$$$$$$$$$$$$$$$$$$$$$$$R....R$$$$$$$$b............",
"............T$$$$$$$$$$$$$$$$$$$$$$$$$$$$$$$$$$$$$$$$$$$$$$$$$$$$$$$$R....R$$$$$$$$$$$$$$$$$$$$$$$$$$R....R$$$$$$$$U............",
"............Vf$$$$$$$$$$$$$$$$$$$$$$$$$$$$$$$$$$$$$$$$$$$$$$$$$$$$$$$R....R$$$$$$$$$$$$$$$$$$$$$$$$$$R....R$$$$$$$fV............",
".............VWS$$$$$$$$$$$$$$$$$$$$$$$$$$$$$$$$$$$$$$$$$$$$$$$$$$$$$R....R$$$$$$$$$$$$$$$$$$$$$$$$$$R....R$$$$$bUX.............",
"..........................................................................R$$$$$$$$$$$$$$$$$$$$$$$$$$R..........................",
"..........................................................................R$$$$$$$$$$$$$$$$$$$$$$$$$$R..........................",
"..........................................................................R$$$$$$$$$$$$$$$$$$$$$$$$$$R..........................",
"..........................................................................R$$$$$$$$$$$$$$$$$$$$$$$$$$R..........................",
"..........................................................................R$$$$$$$$$$$$$$$$$$$$$$$$$$R..........................",
"..........................................................................R$$$$$$$$$$$$$$$$$$$$$$$$$$R..........................",
"..........................................................................R$$$$$$$$$$$$$$$$$$$$$$$$$$R..........................",
"..........................................................................YiiiiiiiiiiiiiiiiiiiiiiiiiiY..........................",
"................................................................................................................................",
"................................................................................................................................",
"................................................................................................................................",
"................................................................................................................................"};
